<svg xmlns="http://www.w3.org/2000/svg" viewBox="0 0 600 380" fill="none">
  <defs>
    <linearGradient id="tBg" x1="0%" y1="0%" x2="100%" y2="100%">
      <stop offset="0%" stop-color="#1e1b4b" />
      <stop offset="100%" stop-color="#020617" />
    </linearGradient>
  </defs>
  <rect width="600" height="380" fill="url(#tBg)" />
  <rect width="600" height="36" fill="#312e81" fill-opacity="0.6" />
  <circle cx="20" cy="18" r="5" fill="#ef4444" />
  <circle cx="36" cy="18" r="5" fill="#f59e0b" />
  <circle cx="52" cy="18" r="5" fill="#10b981" />
  <text x="80" y="22" font-family="sans-serif" font-size="12" font-weight="bold" fill="#a5b4fc">TaskFlow - Kanban Productivity Board</text>

  <g transform="translate(20, 54)">
    <rect width="170" height="300" rx="8" fill="#0f172a" stroke="#334155" />
    <text x="14" y="28" font-family="sans-serif" font-size="12" font-weight="bold" fill="#94a3b8">TO DO (3)</text>
    <circle cx="146" cy="24" r="4" fill="#64748b" />

    <rect x="10" y="46" width="150" height="72" rx="6" fill="#1e293b" stroke="#475569" />
    <text x="20" y="68" font-family="sans-serif" font-size="11" font-weight="bold" fill="#f8fafc">Design Landing Hero</text>
    <rect x="20" y="80" width="45" height="16" rx="4" fill="#3b82f6" fill-opacity="0.2" />
    <text x="42" y="92" font-family="sans-serif" font-size="9" fill="#60a5fa" text-anchor="middle">UI/UX</text>

    <rect x="10" y="128" width="150" height="72" rx="6" fill="#1e293b" stroke="#475569" />
    <text x="20" y="150" font-family="sans-serif" font-size="11" font-weight="bold" fill="#f8fafc">Setup Django Models</text>
    <rect x="20" y="162" width="50" height="16" rx="4" fill="#10b981" fill-opacity="0.2" />
    <text x="45" y="174" font-family="sans-serif" font-size="9" fill="#34d399" text-anchor="middle">Backend</text>
  </g>

  <g transform="translate(214, 54)">
    <rect width="170" height="300" rx="8" fill="#0f172a" stroke="#4f46e5" stroke-width="1.2" />
    <text x="14" y="28" font-family="sans-serif" font-size="12" font-weight="bold" fill="#818cf8">IN PROGRESS (2)</text>
    <circle cx="146" cy="24" r="4" fill="#818cf8" />

    <rect x="10" y="46" width="150" height="78" rx="6" fill="#1e1b4b" stroke="#6366f1" />
    <text x="20" y="68" font-family="sans-serif" font-size="11" font-weight="bold" fill="#f8fafc">Form Validation JS</text>
    <rect x="20" y="80" width="65" height="16" rx="4" fill="#eab308" fill-opacity="0.2" />
    <text x="52" y="92" font-family="sans-serif" font-size="9" fill="#fde047" text-anchor="middle">JavaScript</text>
    <rect x="20" y="106" width="130" height="4" rx="2" fill="#312e81" />
    <rect x="20" y="106" width="95" height="4" rx="2" fill="#6366f1" />

    <rect x="10" y="134" width="150" height="78" rx="6" fill="#1e1b4b" stroke="#6366f1" />
    <text x="20" y="156" font-family="sans-serif" font-size="11" font-weight="bold" fill="#f8fafc">Dark Theme CSS</text>
    <rect x="20" y="168" width="50" height="16" rx="4" fill="#ec4899" fill-opacity="0.2" />
    <text x="45" y="180" font-family="sans-serif" font-size="9" fill="#f472b6" text-anchor="middle">Styling</text>
  </g>

  <g transform="translate(408, 54)">
    <rect width="170" height="300" rx="8" fill="#0f172a" stroke="#334155" />
    <text x="14" y="28" font-family="sans-serif" font-size="12" font-weight="bold" fill="#34d399">DONE (4)</text>
    <circle cx="146" cy="24" r="4" fill="#34d399" />

    <rect x="10" y="46" width="150" height="72" rx="6" fill="#1e293b" stroke="#10b981" stroke-opacity="0.4" />
    <text x="20" y="68" font-family="sans-serif" font-size="11" font-weight="bold" fill="#e2e8f0">Responsive Navbar</text>
    <text x="20" y="92" font-family="sans-serif" font-size="10" fill="#22c55e">✔ Completed</text>

    <rect x="10" y="128" width="150" height="72" rx="6" fill="#1e293b" stroke="#10b981" stroke-opacity="0.4" />
    <text x="20" y="150" font-family="sans-serif" font-size="11" font-weight="bold" fill="#e2e8f0">Git Repo Initialized</text>
    <text x="20" y="174" font-family="sans-serif" font-size="10" fill="#22c55e">✔ Completed</text>
  </g>
</svg>